<svg xmlns="http://www.w3.org/2000/svg" width="92.95" height="56.996" viewBox="0 0 92.95 56.996">
  <g id="Group_12" data-name="Group 12" transform="translate(-147.859 -3530.161)">
    <g id="Group_11" data-name="Group 11">
      <path id="Path_44" data-name="Path 44" d="M194.462,3578.029q1.879-4.166,3.761-8.332,1.593-3.507,3.21-7.006a5.69,5.69,0,0,1,.578-.986c.372-.506.837-.544.928.131.236,1.776,1.353,3.091,2.19,4.561.519.908.932,1.877,1.39,2.819l-.262.23c-.377-.12-.756-.236-1.132-.36a2.43,2.43,0,0,0-3.126,1.626,2.591,2.591,0,0,0,1.683,3.158,2.335,2.335,0,0,0,3.019-1.647,6.836,6.836,0,0,0-.736-5.9c-.63-.913-1.2-1.873-1.746-2.838a3.873,3.873,0,0,1-.452-1.264c-.116-.726.177-1.247.982-.931a6.715,6.715,0,0,1,2.127,1.2,17.546,17.546,0,0,1,5.762,12.533c.068,1.631.057,3.267.037,4.9a1.25,1.25,0,0,1-.378.875c-3.915,3-8.2,5.367-13.122,6.027-8.294,1.108-15.992-.488-22.648-5.868a1.493,1.493,0,0,1-.584-.975,74.8,74.8,0,0,1,.418-7.889c.6-4.34,3.146-7.631,6.3-10.5a3.5,3.5,0,0,1,.513-.288,5.365,5.365,0,0,1-.422,3.487,21.709,21.709,0,0,0-2.621,10.27c-.017.754,1.9,2.319,2.629,2.217a1.183,1.183,0,0,0,.836-.62,1.205,1.205,0,0,0-.311-.994.985.985,0,0,0-.891-.085c-1.112.5-1.6.281-1.727-.924a3.638,3.638,0,0,1,.113-1.437c.715-2.284,1.448-4.565,2.248-6.818a2.1,2.1,0,0,1,1.028-1.258c.307-.094.98.461,1.246.881,1.344,2.106,2.625,4.252,3.885,6.412a4.226,4.226,0,0,1,.457,1.482c.153,1.018-.265,1.3-1.276,1.1a1.367,1.367,0,0,0-1.123.4,1.059,1.059,0,0,0,.164,1.045,1.32,1.32,0,0,0,1.168-.038c1.865-1.2,2.184-2.569.939-5.15-.978-2.027-2.219-3.926-3.365-5.868-.172-.291-.423-.651-.712-.739-2.1-.633-1.507-2.268-1.52-3.868a29.16,29.16,0,0,1,3.145.417c.326.076.636.591.788.971,1.908,4.768,3.783,9.55,5.672,14.328.2.508.433,1,.651,1.5l.285.014"/>
      <path id="Path_45" data-name="Path 45" d="M209.564,3541.2c-.709.593-1.346,1.124-2.064,1.725.174.318.34.648.527.965a4.572,4.572,0,0,1-1.283,6.253,4.661,4.661,0,0,0-1.145,1.67c-1.062,2.142-1.995,4.35-3.136,6.448a11.635,11.635,0,0,1-2.177,2.633,5.628,5.628,0,0,1-4.338,1.709,10.542,10.542,0,0,0-1.355.006,6.685,6.685,0,0,1-6.469-3.25,60.383,60.383,0,0,1-3.566-6.795,6.409,6.409,0,0,0-2.046-2.9,4.193,4.193,0,0,1-1.082-5.028c.323-.795.525-1.463-.137-2.2a1.365,1.365,0,0,1-.181-1.077c.673-2.723,1.6-5.325,3.806-7.256,1.665-1.463,2.863-1.645,4.821-.624a.947.947,0,0,0,1.3-.135c1.219-1.341,2.818-1.529,4.489-1.535a14.169,14.169,0,0,1,12.657,6.919c.488.757.882,1.574,1.382,2.472m-14.615,19.084c2.294.342,3.9-.773,5.125-2.607a17.469,17.469,0,0,0,1.451-2.4c.771-1.7,1.465-3.441,2.136-5.185a2.911,2.911,0,0,1,1.54-1.813,2.707,2.707,0,0,0,1.144-1.677c.254-1.015-1.311-3.191-2.52-3.541-2.633-.758-5.272-1.517-7.949-2.085a4.129,4.129,0,0,0-4.875,2.115,1.518,1.518,0,0,1-1.434.812c-1.524.09-3.049.206-4.562.41a1.643,1.643,0,0,0-1.554,1.454c-.117.937-.072,2.012.864,2.37,1.408.538,1.632,1.708,2.133,2.842a61.162,61.162,0,0,0,3.18,6.519,5.078,5.078,0,0,0,5.321,2.788"/>
      <path id="Path_46" data-name="Path 46" d="M218.815,3552.365c-.186.8-.348,1.6-.563,2.4-.607,2.231-1.363,4.43-1.811,6.691-.3,1.526.181,2.044,1.626,2.578.211.077.639.026.721-.112a1.113,1.113,0,0,0,.079-.87c-.057-.15-.468-.27-.7-.235-1.188.181-1.426.038-1.323-1.2a9.973,9.973,0,0,1,.55-1.978c.379-1.262.738-2.532,1.161-3.779.342-1.009.958-1.15,1.542-.306,1.083,1.569,2.078,3.2,3.078,4.82a2.649,2.649,0,0,1,.282.994c.1.685-.067,1.154-.927,1.121a1.253,1.253,0,0,0-.8.427c-.087.091.094.62.133.618a1.951,1.951,0,0,0,.942-.206,2.059,2.059,0,0,0,.887-2.961c-.757-1.595-1.626-3.14-2.49-4.682a4.216,4.216,0,0,0-.952-1.093c-1.075-.925-1.153-1.1-.9-2.571,1.875-.293,2.28-.135,2.973,1.536,1.4,3.364,2.727,6.758,4.085,10.137.153.38.31.759.522,1.279,2-4.35,3.924-8.552,5.969-13.007l3.156,6.032-.286.195c-.253-.076-.507-.154-.759-.231a1.808,1.808,0,0,0-2.306,1.2,1.838,1.838,0,0,0,1.235,2.309,1.669,1.669,0,0,0,2.276-1.212,5.163,5.163,0,0,0-.444-4.225c-.534-.893-1.088-1.777-1.553-2.707-.144-.285-.164-.87.011-1.016a1.2,1.2,0,0,1,1.056-.042,4.505,4.505,0,0,1,1.239.922c2.936,2.9,4.017,6.5,4.268,10.538.136,2.188-.7,3.357-2.441,4.481-5.019,3.235-10.485,3.766-16.141,2.774a20.158,20.158,0,0,1-8.562-4.141,1.152,1.152,0,0,1-.448-.746c-.1-3.784-.005-7.542,2.437-10.739.848-1.111,1.821-2.127,2.738-3.186.146.064.291.131.437.2"/>
      <path id="Path_47" data-name="Path 47" d="M153.207,3552.183a3.782,3.782,0,0,1-.37,2.737,18.458,18.458,0,0,0-1.765,7.337c-.027.654,1.477,2.076,2.038,1.89.27-.09.416-.552.619-.847-.325-.166-.673-.505-.971-.466-1,.131-1.306-.009-1.253-.989a7.91,7.91,0,0,1,.476-1.9c.439-1.387.853-2.789,1.384-4.142.383-.979.881-1.04,1.474-.17,1.073,1.575,2.063,3.209,3.051,4.841a3.293,3.293,0,0,1,.292,1.1c.1.563-.141.861-.73.858-.207,0-.513-.075-.6.032a4.174,4.174,0,0,0-.474.881c.264.062.573.247.783.168a1.954,1.954,0,0,0,1.293-2.636c-.9-1.978-1.975-3.872-2.995-5.793a1.168,1.168,0,0,0-.509-.512c-1.207-.512-1.114-1.5-1.006-2.509,1.842-.427,2.38-.2,3.078,1.478,1.386,3.332,2.723,6.685,4.084,10.027.139.34.307.669.521,1.13,2.254-4.2,3.735-8.615,6.079-12.583,1.049,2.01,2.006,3.849,3.1,5.946-.65-.061-.974-.1-1.3-.123-1.205-.087-2.038.471-2.176,1.452a1.924,1.924,0,0,0,1.311,2.111,1.772,1.772,0,0,0,2.334-1.472,5.036,5.036,0,0,0-.617-4.2c-.367-.59-.792-1.148-1.107-1.763a15.6,15.6,0,0,1-.652-1.723,1.885,1.885,0,0,1,2.282.534,13.729,13.729,0,0,1,4.439,9.153c.051.588,0,1.191.108,1.767.391,2.115-.6,3.3-2.357,4.4-5.072,3.195-10.562,3.782-16.258,2.764a19.246,19.246,0,0,1-8.507-4.237,1.164,1.164,0,0,1-.42-.762,20.418,20.418,0,0,1,.931-7.81,14.23,14.23,0,0,1,4.393-5.977"/>
      <path id="Path_48" data-name="Path 48" d="M238.35,3537.052l-1.51,1.391c1.354,2.374,1.218,3.336-.523,5.373a12.3,12.3,0,0,0-1.277,2.12c-.86,1.58-1.614,3.225-2.562,4.75a5.264,5.264,0,0,1-4.276,2.4,6.087,6.087,0,0,1-6.444-3.233c-.614-1.086-1.132-2.228-1.759-3.306a35.319,35.319,0,0,0-2.2-3.466,3.553,3.553,0,0,1-.456-3.446c.171-.54.365-.982-.071-1.534a1.651,1.651,0,0,1-.09-1.192,10.006,10.006,0,0,1,2.722-5.064,3.035,3.035,0,0,1,3.55-.629,1.41,1.41,0,0,0,1.24-.152,3.653,3.653,0,0,1,2.571-.86c5.352-.408,8.695,2.35,11.082,6.851M227.289,3551.3a3.507,3.507,0,0,0,4.053-2.015c.976-1.707,1.728-3.544,2.621-5.3a4.024,4.024,0,0,1,1.053-1.469c1.237-.9,1.373-1.671.332-2.8a4.714,4.714,0,0,0-2.728-1.582c-1.871-.33-3.707-.866-5.583-1.16a2.374,2.374,0,0,0-2.5,1.343,1.8,1.8,0,0,1-1.131.711c-1.123.216-2.292.215-3.4.489-.475.118-1.168.7-1.167,1.071a3.782,3.782,0,0,0,.8,1.767c.33.517.886.9,1.163,1.439.935,1.813,1.714,3.707,2.7,5.49a3.409,3.409,0,0,0,3.782,2.02"/>
      <path id="Path_49" data-name="Path 49" d="M173.052,3537.167c-1.75.672-1.389,1.718-.777,2.974s-.125,2.308-.888,3.315a26.2,26.2,0,0,0-1.731,2.678c-.957,1.641-1.792,3.359-2.82,4.954-1.691,2.621-7.455,2.856-9.323.135-1.168-1.7-2.056-3.592-3.1-5.378a15.708,15.708,0,0,0-1.583-2.389,3.692,3.692,0,0,1-.837-3.847,4.318,4.318,0,0,0-.033-1.533c-.02-.3-.182-.624-.119-.9a10.594,10.594,0,0,1,2.412-5.006,3.075,3.075,0,0,1,4-.866,1.113,1.113,0,0,0,.992-.128,4.053,4.053,0,0,1,2.969-.979c5.2-.276,8.476,2.41,10.839,6.97m-11.164,14.159a3.752,3.752,0,0,0,4.166-2.014c.941-1.689,1.714-3.473,2.51-5.24a3.306,3.306,0,0,1,1.335-1.751c.444-.258.941-1.235.773-1.567a4.362,4.362,0,0,0-1.854-2.1,34.206,34.206,0,0,0-5.695-1.633,3.355,3.355,0,0,0-3.935,1.4,1.961,1.961,0,0,1-1.233.612c-1.057.2-2.159.186-3.189.462-.511.138-1.241.7-1.267,1.113a2.166,2.166,0,0,0,.822,1.7,3.207,3.207,0,0,1,1.26,1.673c.84,1.822,1.642,3.67,2.642,5.4a3.371,3.371,0,0,0,3.665,1.934"/>
    </g>
  </g>
</svg>
