<svg xmlns="http://www.w3.org/2000/svg" width="70.243" height="70.157" viewBox="0 0 70.243 70.157">
  <g id="Group_10" data-name="Group 10" transform="translate(-537.898 -3348.232)">
    <g id="Group_9" data-name="Group 9">
      <path id="Path_14" data-name="Path 14" d="M571.027,3367.878c2.373,3.595,4.6,7.271,6.763,11.023l-14.935,8.451a98.719,98.719,0,0,1-5.688-11.535c.38-.376,12.611-7.39,13.86-7.939"/>
      <path id="Path_15" data-name="Path 15" d="M564.4,3390.221l14.942-8.452c.551.651,5.561,10.292,5.976,11.5-4.59,2.626-9.191,5.253-13.889,7.781a125.793,125.793,0,0,1-7.029-10.832"/>
      <path id="Path_16" data-name="Path 16" d="M586.795,3359.533a54.4,54.4,0,0,1,7.653,9.985l-12.59,7.123c-2.187-3.734-4.49-7.339-7-10.8.394-.407,10.416-5.7,11.942-6.308"/>
      <path id="Path_17" data-name="Path 17" d="M583.428,3379.423l12.587-7.121a54.235,54.235,0,0,1,4.566,11.736c-3.767,2.415-7.591,4.731-11.495,7.027-1.7-4-3.584-7.837-5.658-11.642"/>
      <path id="Path_18" data-name="Path 18" d="M553.52,3377.914c.571,1.377,1.1,2.7,1.669,4.009s1.164,2.578,1.781,3.85,1.282,2.543,1.948,3.857l-11.366,6.431c-1.072-1.232-4.078-9.14-4.416-11.667,3.381-2.232,6.845-4.365,10.384-6.48"/>
      <path id="Path_19" data-name="Path 19" d="M567.735,3403.043c-3.574,1.9-7.176,3.763-10.889,5.54a47.912,47.912,0,0,1-7.78-9.753l11.382-6.439c1.193,1.837,2.321,3.652,3.528,5.415s2.475,3.455,3.759,5.237"/>
      <path id="Path_20" data-name="Path 20" d="M556.008,3373.077a68.821,68.821,0,0,1-3.126-9.759c3.45-2.086,6.91-4.121,10.5-6.017,2.156,2.615,4.12,5.348,6.053,8.182l-13.423,7.594"/>
      <path id="Path_21" data-name="Path 21" d="M586.579,3395.858c1.413,3.05,2.71,6.125,3.847,9.328-3.441,2.06-6.945,3.985-10.505,5.858a67.829,67.829,0,0,1-6.757-7.679l13.415-7.507"/>
      <path id="Path_22" data-name="Path 22" d="M573.068,3363.449a71.255,71.255,0,0,0-6.771-7.666,2.585,2.585,0,0,1,.281-.194c1.751-.883,3.5-1.775,5.259-2.637,1.093-.537,2.212-1.021,3.312-1.546a.833.833,0,0,1,.823,0,39.408,39.408,0,0,1,8.5,5.9,1.725,1.725,0,0,1,.161.186l-11.564,5.958"/>
      <path id="Path_23" data-name="Path 23" d="M590.2,3393.724c3.655-2.264,7.3-4.523,10.986-6.8a2.116,2.116,0,0,1,.093.3c.2,1.4.435,2.793.574,4.2a33.641,33.641,0,0,1,.027,6.121.62.62,0,0,1-.267.525c-2.528,1.761-5.113,3.43-7.735,5.046-.2.123-.407.232-.609.346-.476-1.658-.908-3.293-1.416-4.9s-1.093-3.2-1.653-4.832"/>
      <path id="Path_24" data-name="Path 24" d="M550.2,3365.031a54.118,54.118,0,0,0,2.383,10.121l-10.018,6.36c-.027-.1-.06-.2-.077-.308a37.012,37.012,0,0,1-.226-10.546.651.651,0,0,1,.267-.492c2.417-1.775,4.912-3.435,7.444-5.039a1.878,1.878,0,0,1,.227-.1"/>
      <path id="Path_25" data-name="Path 25" d="M559.02,3410.548c3.555-1.776,7.07-3.533,10.575-5.282,1.2,1.25,2.387,2.511,3.6,3.747a40.975,40.975,0,0,0,3.9,3.433,1.857,1.857,0,0,1-.222.162c-1.9.9-3.792,1.809-5.694,2.7-.748.35-1.521.647-2.271.991a.839.839,0,0,1-.753,0,36.8,36.8,0,0,1-7.9-4.752c-.417-.325-.823-.663-1.237-1"/>
      <path id="Path_26" data-name="Path 26" d="M589.357,3358.25c.4-.189.709-.348,1.028-.485,1.386-.6,2.777-1.189,4.161-1.793a.51.51,0,0,1,.6.1,34.064,34.064,0,0,1,5.813,6.022c.608.817,1.169,1.673,1.749,2.513.055.078.095.164.169.294l-5.74,3.161a48.964,48.964,0,0,0-7.782-9.811"/>
      <path id="Path_27" data-name="Path 27" d="M602.984,3382.445a48.686,48.686,0,0,0-4.351-11.722l5.65-3.285a1.821,1.821,0,0,1,.129.187,34.908,34.908,0,0,1,3.421,11.012.529.529,0,0,1-.237.566c-.722.532-1.429,1.082-2.158,1.6s-1.458.994-2.187,1.489c-.067.045-.141.081-.267.151"/>
      <path id="Path_28" data-name="Path 28" d="M562.092,3355.787l-9.6,5.525c-.047-.209-.1-.407-.132-.607a19.7,19.7,0,0,1-.229-4.728c0-.028,0-.056.006-.084.066-.684.062-.692.667-1.043q2.361-1.373,4.729-2.736l.4-.228a22.785,22.785,0,0,1,4.152,3.9"/>
      <path id="Path_29" data-name="Path 29" d="M581.435,3412.393c3.22-1.789,6.4-3.556,9.575-5.321a19.568,19.568,0,0,1,1.174,5.465,1.35,1.35,0,0,1-.144.11c-1.714.952-3.432,1.9-5.142,2.857a.771.771,0,0,1-.749.031,11.935,11.935,0,0,1-2.313-1.273c-.764-.543-1.493-1.134-2.236-1.706a1.921,1.921,0,0,1-.165-.163"/>
      <path id="Path_30" data-name="Path 30" d="M545.286,3397.428l-3.475,1.966c-.114-.2-.241-.4-.343-.611a35.43,35.43,0,0,1-3.228-10.467.569.569,0,0,1,.242-.642c.823-.581,1.626-1.19,2.439-1.785a.74.74,0,0,1,.16-.052,44.975,44.975,0,0,0,4.205,11.591"/>
      <path id="Path_31" data-name="Path 31" d="M543.286,3401.991c1.174-.665,2.3-1.3,3.473-1.965a45.062,45.062,0,0,0,7.86,9.582c-.426.192-.789.366-1.16.521-.594.247-1.2.476-1.79.728a.565.565,0,0,1-.645-.106,34.332,34.332,0,0,1-5.768-5.9c-.575-.756-1.114-1.542-1.662-2.322-.119-.168-.205-.358-.308-.538"/>
      <path id="Path_32" data-name="Path 32" d="M592.465,3354.12c-.738.289-1.406.533-2.061.811q-1.413.591-2.807,1.225a.54.54,0,0,1-.672-.073,37.231,37.231,0,0,0-7.709-5.04c-.364-.178-.737-.337-1.106-.508-.111-.052-.217-.11-.361-.184a2.452,2.452,0,0,1,.315-.176c.814-.3,1.63-.6,2.442-.9a1.369,1.369,0,0,1,.858-.034A35.42,35.42,0,0,1,592,3353.8c.14.09.273.186.463.316"/>
      <path id="Path_33" data-name="Path 33" d="M603.7,3396.5c.016-.2.02-.325.037-.446a36.768,36.768,0,0,0-.155-10.376.52.52,0,0,1,.241-.593c1.273-.914,2.529-1.851,3.789-2.781.144-.107.281-.225.46-.371a2.736,2.736,0,0,1,.052.3,34.985,34.985,0,0,1-1.681,11.874.915.915,0,0,1-.252.419c-.752.626-1.518,1.237-2.282,1.851a2.208,2.208,0,0,1-.209.12"/>
      <path id="Path_34" data-name="Path 34" d="M564.754,3354.378a18.8,18.8,0,0,0-5.162-3.3,6.211,6.211,0,0,1,1.465-.737,32.965,32.965,0,0,1,5.787-1.559,2.111,2.111,0,0,1,.583-.02,23.015,23.015,0,0,1,5.538,1.345c.112.042.219.1.33.153l-8.541,4.119"/>
      <path id="Path_35" data-name="Path 35" d="M593.73,3411.625c.058-.432.11-.747.143-1.064a17.371,17.371,0,0,0-.089-3.773c-.041-.347-.075-.7-.147-1.038a.392.392,0,0,1,.23-.474c.528-.317,1.057-.634,1.571-.976q2.96-1.961,5.91-3.937a1.256,1.256,0,0,1,.14-.049c-.027.2-.042.373-.077.542a24.149,24.149,0,0,1-1.665,5.144,2.508,2.508,0,0,1-.391.593,32.263,32.263,0,0,1-4.773,4.469c-.245.184-.511.338-.852.563"/>
      <path id="Path_36" data-name="Path 36" d="M542.761,3367.893c.064-.316.1-.546.157-.77a25.524,25.524,0,0,1,1.17-3.548,3.348,3.348,0,0,1,.345-.62,34.787,34.787,0,0,1,6.087-6.572,1.083,1.083,0,0,1,.145-.082.874.874,0,0,1-.011.2,15.694,15.694,0,0,0-.678,4.763c-.005.449,0,.9.029,1.344a.469.469,0,0,1-.24.479q-3,2.015-5.979,4.052c-.323.22-.628.463-1.025.757"/>
      <path id="Path_37" data-name="Path 37" d="M570.957,3417.328l7.9-3.616a19.437,19.437,0,0,0,5.859,2.748c-.132.053-.262.11-.4.156a34.812,34.812,0,0,1-8.4,1.742,3.764,3.764,0,0,1-.835-.03,24.871,24.871,0,0,1-3.722-.853c-.13-.038-.254-.092-.4-.147"/>
      <path id="Path_38" data-name="Path 38" d="M540.727,3371.677a36.849,36.849,0,0,0-.145,11.252l-2.642,2.027c-.011-.2-.022-.349-.027-.5a35.54,35.54,0,0,1,1.564-11.511,1.461,1.461,0,0,1,.524-.778c.219-.168.428-.352.642-.528l.084.036"/>
      <path id="Path_39" data-name="Path 39" d="M553.738,3412.7c.122-.057.194-.1.27-.126.834-.327,1.673-.64,2.5-.983a.485.485,0,0,1,.566.08,35.78,35.78,0,0,0,6.331,4.026c.9.446,1.838.824,2.759,1.236l.515.223a3.314,3.314,0,0,1-1.95.336,36.233,36.233,0,0,1-10.578-4.515c-.127-.081-.251-.168-.412-.277"/>
      <path id="Path_40" data-name="Path 40" d="M577.633,3348.611c-.742.275-1.458.545-2.178.8a.554.554,0,0,1-.324-.015,27.831,27.831,0,0,0-4.157-.995.241.241,0,0,1-.075-.036,24.93,24.93,0,0,1,6.734.244"/>
      <path id="Path_41" data-name="Path 41" d="M605.048,3397.574a25.922,25.922,0,0,1-3.251,5.8c.046-.126.086-.253.137-.375a25.359,25.359,0,0,0,1.183-3.667.86.86,0,0,1,.316-.519c.476-.365.938-.75,1.408-1.124a1.517,1.517,0,0,1,.207-.117"/>
      <path id="Path_42" data-name="Path 42" d="M541.627,3367.669c-.068.313-.138.656-.223.994-.111.432-.118.429-.518.707a5.8,5.8,0,0,1,.741-1.7"/>
      <path id="Path_43" data-name="Path 43" d="M568.7,3418.211a.616.616,0,0,1,.7-.194c.351.125.7.24,1.091.372-.616-.063-1.2-.12-1.792-.178"/>
    </g>
  </g>
</svg>
