<svg xmlns="http://www.w3.org/2000/svg" width="65.289" height="57.125" viewBox="0 0 65.289 57.125">
  <g id="Group_18" data-name="Group 18" transform="translate(-539.375 -3694.83)">
    <g id="Group_17" data-name="Group 17">
      <path id="Path_65" data-name="Path 65" d="M539.375,3718.078c.091-.078.186-.151.273-.236q9.249-9.21,18.495-18.424c.338-.337.619-.729.927-1.095l.182.063q9.312,9.278,18.59,18.521,9.384-9.379,18.742-18.736h-5.578v-3.341h13.658v15.677H601.44V3702.7c-.045-.019-.087-.04-.132-.061l-23.463,23.419q-9.333-9.333-18.667-18.664l-15.258,15.255c-.1-.1-.19-.175-.272-.257q-2.015-2.013-4.028-4.026c-.077-.077-.163-.144-.245-.216Z"/>
      <path id="Path_66" data-name="Path 66" d="M602.095,3751.955h-9.8v-.4q0-18,.008-36a.754.754,0,0,1,.174-.5q3.351-3.315,6.724-6.6c.037-.036.081-.068.206-.175v6.334h2.693Z"/>
      <path id="Path_67" data-name="Path 67" d="M568.941,3751.952h-9.777V3713.2c.107.095.189.158.261.232q4.664,4.661,9.321,9.329a.759.759,0,0,1,.2.484q.015,14.186.009,28.37c0,.109-.01.217-.016.338"/>
      <path id="Path_68" data-name="Path 68" d="M542.362,3751.888v-26.362l.1-.066,2.213,2.135,7.394-7.354.11.051c.106,10.525.035,21.05.008,31.6Z"/>
      <path id="Path_69" data-name="Path 69" d="M585.229,3751.952h-9.743v-22.417l1.508,1.576,8.114-8.19c.041.022.081.046.121.067Z"/>
    </g>
  </g>
</svg>
