<svg xmlns="http://www.w3.org/2000/svg" width="60.743" height="60.723" viewBox="0 0 60.743 60.723">
  <g id="Group_8" data-name="Group 8" transform="translate(-162.963 -3352.949)">
    <path id="Path_12" data-name="Path 12" d="M217.651,3407.648h6.011v6.024H163v-6h6.013v-1.239q0-11.951-.01-23.9a1.269,1.269,0,0,1,.6-1.19q11.55-8.217,23.066-16.478a.893.893,0,0,1,1.258-.051q11.543,8.3,23.127,16.53a1.275,1.275,0,0,1,.6,1.19q-.024,11.75-.011,23.5Zm-21.277-12.166h5.993v-6.108h-6.011v-5.983h-6.1v6.026h-5.982v6.1h6.01v6.051c1.824,0,3.573-.023,5.32.011.6.013.791-.176.78-.782-.038-1.727-.014-3.454-.014-5.312"/>
    <path id="Path_13" data-name="Path 13" d="M223.705,3374.139a3.023,3.023,0,0,1-4.732,2.585c-2.289-1.479-4.541-3.016-6.809-4.528q-9.092-6.064-18.176-12.143a1.006,1.006,0,0,0-1.337.022q-12.312,8.238-24.646,16.449a3.253,3.253,0,0,1-3.055.539,2.836,2.836,0,0,1-1.933-2.3,2.9,2.9,0,0,1,1.107-2.95c.489-.38,1.024-.7,1.541-1.043q12.768-8.508,25.536-17.012a3.211,3.211,0,0,1,4.243-.017q13.3,8.878,26.6,17.747a3.131,3.131,0,0,1,1.659,2.651"/>
  </g>
</svg>
